<?xml version="1.0" encoding="UTF-8" standalone="no"?> <svg width="512" height="512" viewBox="0 0 512 512" fill="none" xmlns="http://www.w3.org/2000/svg">
<path fill-rule="evenodd" clip-rule="evenodd" d="M64 256C64 149.961 149.961 64 256 64C362.039 64 448 149.961 448 256C448 362.039 362.039 448 256 448C149.961 448 64 362.039 64 256ZM256 32C132.288 32 32 132.288 32 256C32 379.712 132.288 480 256 480C379.712 480 480 379.712 480 256C480 132.288 379.712 32 256 32ZM208.72 138.585C203.8 135.387 197.525 135.139 192.368 137.937C187.211 140.736 184 146.133 184 152V360C184 365.867 187.211 371.264 192.368 374.063C197.525 376.861 203.8 376.613 208.72 373.415L368.72 269.415C373.26 266.464 376 261.416 376 256C376 250.584 373.26 245.536 368.72 242.585L208.72 138.585ZM330.642 256L216 330.517V181.483L330.642 256Z" fill="black"/>
</svg>
